<svg version="1.2" xmlns="http://www.w3.org/2000/svg" viewBox="0 0 5250 4215" width="5250" height="4215">
	<title>contact-svg</title>
	<style>
		tspan { white-space:pre } 
		.s0 { fill: #ebc867 } 
		.s1 { fill: #cba641 } 
		.s2 { fill: #f5d4be } 
		.s3 { fill: #e2a68f } 
		.s4 { fill: #8988c1 } 
		.s5 { fill: #f0c6b6 } 
		.s6 { fill: #ffdf88 } 
		.s7 { fill: #6863a9 } 
		.s8 { fill: #2e3031 } 
		.s9 { fill: #ea9990 } 
		.s10 { fill: #fefefe } 
		.s11 { fill: #37353b } 
		.s12 { fill: #ec7358 } 
		.s13 { fill: #bc3e3d } 
		.s14 { fill: #45434a } 
		.s15 { fill: #888685 } 
		.s16 { fill: #2f2d2b } 
		.s17 { fill: #6e6c6b } 
		.s18 { fill: #d6d4d2 } 
		.t19 { font-size: 13px;fill: #000000;font-weight: 400;font-family: "LiberationSans", "Liberation Sans" } 
	</style>
	<g id="Layer_x0020_1">
		<path id="Layer" class="s0" d="m4921.6 2224.9c-85.8 983.4-684.6 1552.2-2303.1 1552.2-1618.5 0-2370.8-594.6-2359.3-1505.7 12-949.3 298.2-1913.7 2246.3-1915.3 2528.7-2.1 2495.6 958 2416.1 1868.8z"/>
		<path id="Layer" class="s1" d="m4612.6 864.8c318.2 356.1 289.7 833.8 249.1 1298.7-85.8 983.5-684.6 1552.3-2303.1 1552.3-955.5 0-1609.1-207.3-1981.8-564.5q10.3 11.3 21 22.4 4 4.1 8 8.2c7.4 7.6 14.8 15.1 22.4 22.6 2.1 2 4.3 4 6.4 6q10.2 9.9 20.6 19.5 4.2 3.8 8.3 7.6 12.3 11.2 24.9 22.1c2.7 2.3 5.5 4.7 8.3 7q10.7 9.1 21.7 18.1c2.4 1.9 4.7 3.9 7.1 5.9q13.4 10.7 27.1 21.2 4.7 3.5 9.4 7.1c9.3 7 18.7 14 28.2 20.9 2.2 1.5 4.4 3 6.6 4.6q12.4 8.8 25.1 17.5 4.7 3.2 9.4 6.3 14.8 10 30 19.7c3.1 2 6.3 3.9 9.4 5.9q13.2 8.3 26.7 16.5c2.5 1.5 5 3.1 7.5 4.6q16 9.5 32.4 18.8 5.2 2.9 10.4 5.9c11.1 6.1 22.2 12.3 33.6 18.3 2.4 1.3 4.8 2.5 7.2 3.8q14.9 7.8 30.1 15.5 5.1 2.6 10.2 5.1 17.4 8.7 35.3 17.1 5.2 2.4 10.4 4.8 16 7.5 32.3 14.7c2.4 1.1 4.8 2.2 7.3 3.3q18.7 8.2 38 16.2 5.6 2.4 11.2 4.7c12.9 5.3 26 10.5 39.1 15.7 2.6 1 5.2 1.9 7.8 2.9q17.6 6.8 35.5 13.3 5.2 2 10.5 3.9 20.3 7.3 41 14.4 5.5 1.9 11.1 3.7 19.1 6.5 38.6 12.7c2.1 0.7 4.3 1.4 6.4 2.1 14.5 4.6 29.2 9 44 13.4q5.9 1.8 11.9 3.5c14.8 4.4 29.7 8.6 44.8 12.8 2.7 0.7 5.4 1.5 8.2 2.2q20.4 5.5 41.1 10.9 5.3 1.4 10.7 2.7 23.2 5.9 46.8 11.5 5.8 1.3 11.7 2.7 22.5 5.2 45.4 10.2c1.7 0.4 3.5 0.8 5.2 1.2 16.5 3.5 33.2 7 50 10.3q6.2 1.3 12.4 2.5c16.8 3.3 33.6 6.5 50.7 9.6 2.8 0.5 5.7 1 8.6 1.5q23.3 4.2 47 8.1c3.5 0.6 7.1 1.3 10.7 1.8q26.1 4.3 52.7 8.3 6.1 0.9 12.3 1.8c17.4 2.5 34.9 5 52.6 7.4q1.8 0.2 3.6 0.4c18.5 2.5 37.3 4.8 56.1 7.1q6.5 0.7 13 1.5c18.7 2.2 37.5 4.3 56.5 6.2 3 0.3 6.1 0.6 9.2 0.9q26.2 2.7 52.7 5.1c3.6 0.3 7.2 0.6 10.8 1q29 2.5 58.6 4.7 6.5 0.5 13 1c19.8 1.5 39.7 2.8 59.9 4.1q0.9 0 1.9 0.1c20.5 1.3 41.3 2.4 62.3 3.4q6.8 0.4 13.6 0.7 30.9 1.5 62.2 2.6c3.4 0.1 6.8 0.2 10.2 0.4q29 1 58.3 1.7c3.6 0.1 7.1 0.2 10.8 0.3q31.9 0.7 64.4 1.1 7 0.1 14.1 0.2c22.2 0.2 44.6 0.3 67.2 0.3 1618.5 0 2217.3-568.8 2303.1-1552.2q1.8-20.4 3.5-40.7l0.3-2.8q1.6-19.4 3.2-38.9 0.2-2.4 0.4-4.8 1.6-19.1 3-38.1l0.4-5.4q1.5-19 2.8-38 0.2-2.6 0.4-5.2 1.3-19.2 2.5-38.4 0.1-2.1 0.3-4.2 1.2-19.8 2.3-39.6 0-1 0.1-1.9 1-20 1.9-40 0-0.9 0.1-1.8 0.8-19.5 1.4-38.9 0.1-2.4 0.2-4.8 0.6-18.7 0.9-37.3 0.1-3.1 0.2-6.1 0.3-18.3 0.4-36.5 0-3.3 0-6.6 0.1-18.2-0.1-36.3-0.1-3.1-0.1-6.2-0.3-18.4-0.8-36.8-0.1-2.4-0.1-4.8-0.6-19.1-1.5-38-0.1-0.9-0.1-1.8-0.9-18.6-2.2-37.1-0.1-2.3-0.3-4.6-1.3-18-2.9-35.9-0.3-3.2-0.5-6.4-1.7-17.5-3.6-34.8-0.4-3.5-0.9-7.1-2-17.2-4.4-34.2-0.5-3.6-1-7.1-2.4-17.2-5.3-34.2-0.5-3.2-1.1-6.3c-2-11.7-4.1-23.3-6.4-34.9q-0.4-2.1-0.9-4.3-3.5-17.1-7.3-34.1-0.4-1.7-0.8-3.4c-2.7-11.6-5.6-23.1-8.6-34.5q-0.7-3-1.5-5.9-4.4-16.5-9.3-32.9-1.1-3.5-2.1-6.9-4.9-16.1-10.3-32-1.2-3.6-2.4-7.1-5.5-15.9-11.5-31.7-1.3-3.3-2.6-6.6c-4.1-10.7-8.4-21.3-12.9-31.9-0.8-1.8-1.6-3.6-2.4-5.4-4.7-10.9-9.6-21.8-14.7-32.6q-0.7-1.5-1.4-2.9-7.6-15.8-15.7-31.3c-0.8-1.4-1.5-2.9-2.3-4.3-5.5-10.5-11.2-20.8-17.2-31.1q-1.6-2.9-3.3-5.7-8.8-15-18.2-29.8-2-3.2-4-6.3-9.4-14.6-19.5-29.1-2.1-3-4.3-6-10.3-14.6-21.3-28.9-2-2.6-4-5.3c-7.7-9.8-15.5-19.5-23.6-29.2-1-1.1-2-2.3-3-3.5q-12.3-14.6-25.4-28.9-0.9-0.9-1.8-1.9c-9-9.8-18.3-19.4-27.8-29-1.3-1.3-2.6-2.6-3.9-3.9-5.8-5.8-11.9-11.5-18-17.2z"/>
		<path id="Layer" class="s2" d="m2776.7 3469.2c0 0-7.4-11.5-10.6-22.6-3.3-11.1 0.8-41.5-10.4-38.2-11.2 3.3-9.5 27.3-10.2 38.2-0.7 10.9-3.8 31.4-4.2 34.2-0.4 2.7 38.5-1.9 35.4-11.6z"/>
		<path id="Layer" class="s2" d="m2748.7 3452.4c0 0-6.7 11.2-27.1-0.6-26.7-15.6-23.7-11.8-42.5-23.6-15.4-9.7-20.3 1.3-7.3 13.3 10.8 9.9 21.7 18 32.8 27.6 6.2 5.4 4.2 7.9-4 7.2-5.4-0.4-47.4-16.9-57.6-12.8-7.8 3.1-2.1 12.2 11.9 16.2 12.9 3.6 48 17.2 47.8 20.2-0.3 3.1-49.8-8.7-59.1-6.8-9.2 1.9-6.4 9.6 7.6 13.5 10 2.7 56.1 12.9 57.7 18.2 2.3 7.8-21.8 13.3-30.2 19.3-6.5 4.7-2.5 9.1 13 3.6 19.3-6.7 19.9-2.1 38.7-5.8 17.2-3.4 44.3-3.6 55.6-24.3 12.2-22.4-15.3-74.3-37.3-65.2z"/>
		<path id="Layer" class="s3" d="m2728.5 3481.1c-4.1 6.5-7.3 13.5-9.5 20.8-0.7 2.2-1.2 4.7-0.2 6.7 1.5 2.8 5.3 3.3 8.5 3.5q14.1 0.7 28.3 1.4c-12.2-11.3-18-29.1-15.2-45.5q-0.2 0-0.4 0c-1.1 0-2 0.9-2.8 1.7-3.2 3.6-6.1 7.4-8.7 11.4z"/>
		<path id="Layer" class="s4" d="m2785.7 3471.1c0 0 153 56.6 163.1 85.6 8.2 23.5-6.9 85.1-98.9 45.4-90-38.9-106-48.7-106-48.7z"/>
		<path id="Layer" class="s4" d="m3022.7 3432.1c0 0-25.2-21.8-59.3 11.8-34.2 33.7-59.6 59.3-86.9 92.5-27.3 33.1 15.7 86.7 55.6 72.5 39.8-14.3 78.1-46.3 78.1-46.3z"/>
		<path id="Layer" class="s5" d="m3036.8 3607.1h275.4v-423.6h-275.4z"/>
		<path id="Layer" class="s6" d="m2988 3603.7l0.1 1.3c3.5 35.1 6.2 103.3 8.2 160.7 128.3-8.2 249.1-20.6 362.5-37.3 1.8-47.3 4.1-95.7 6.8-123.4l0.1-1.3 0.8-1c16.5-24.2 26.1-100.1 18-142.6-2.4-12.4-6.2-21-10.7-24.1-21.3-14.3-49.1-32.4-56.2-38.4 0 0-41.2 133.7-143.1 133.7-101.8 0-144.3-133.7-144.3-133.7-7.1 6-28.9 24-50.3 38.4-4.5 3-8.3 11.6-10.7 24.1-8.1 42.5 1.6 118.4 18.1 142.5z"/>
		<path id="Layer" class="s4" d="m3363.8 3727.7c1.8-46.8 4.1-94.8 6.8-122.2 23.3-34 31.9-156.1 6-173.6-25.9-17.5-63.6-40.1-63.6-40.1 0 0-92.1 230.6-138.5 232.1-46.8-1.4-139.6-233.8-139.6-233.8 0 0-31.9 24.3-57.7 41.8-25.9 17.4-17.3 139.6 6 173.6 3.4 34.9 6.2 103.6 8.2 160.5 132-8.2 256.1-21 372.4-38.3z"/>
		<path id="Layer" class="s7" d="m3373.2 3546c-18.2 19.8-40.3 54.2-40.3 54.2-17.1 20.4-49.4 49.7-63.1 64.5l32.2 41.9c0 0 36.4 0 54.6-3.3-3.5 7-5.6 17-8.8 26.7 5.3-0.8 10.7-1.5 16-2.3 1.8-46.8 4.1-94.8 6.8-122.2 9.6-14 16.7-42.9 19.9-73.3-6.2 3.9-12 8.4-17.3 13.8zm-309.2 214.9c-33-2.3-56.3-6.3-58.5-12.6-8-22.5-12.3-78.6-15.7-133.3-2-31.8-11.9-49.8-26.2-79.5 3.4 29.2 10.3 56.5 19.6 70 3.4 34.9 6.2 103.6 8.1 160.5q36.8-2.3 72.7-5.1z"/>
		<path id="Layer" class="s8" d="m3193.6 3620c0 0 90-62.5 145.1-72.5-7.6-20-40.1-42.5-40.1-42.5 0 0 27.5 0 40.1 10-3.6-37-13.6-115.9-17.6-118.3-5-3.1-8.1-4.9-8.1-4.9 0 0-83.1 208-131.2 230.2z"/>
		<path id="Layer" class="s8" d="m3010.9 3520c22.5 0 45.1 0 67.6 7.5-15 15-32.5 25-47.5 35 45 10 86.2 30 122.5 55 3 3 11.1 3.1 11.1 3.1-48.9-28.2-129.7-230.5-129.7-230.5 0 0-3.9 2.9-10 7.5-1.3 0.9-14 122.4-14 122.4z"/>
		<path id="Layer" class="s2" d="m3313.6 3725.5c-17.7-4-35-10.6-48.7-22.5-7-6-13.5-15-10.4-23.7 1.7-4.9 6.1-8.3 10.5-11.2 9.3-6.4 18.5-13.6 29.2-17.5 8.4-3 38.7 32.3 38.7 32.3 0 0-6.4 45.5-19.3 42.6z"/>
		<path id="Layer" class="s4" d="m3334.4 3706.5c26.7-12.2 68.9-33.2 95.6-45.4 12.1-5.6 25.1-12 31-24 6.7-13.6 2.1-29.9-2.6-44.3-16-48.9-37-98.1-60-147.9-8.2-17.8-22.3-20.2-37.9-4.6-15.6 15.6-22.1 96.4-22.1 96.4l26.9 46.3c-26.3 23.2-46.2 43.9-76.2 67z"/>
		<path id="Layer" class="s2" d="m3355.8 3500.8c101.1-16.3 211.9-46.9 306.3-98.5 82.1-45 140.8-101.3 192.7-160.8 40.9-59.6 316.6-552.9 175.5-695.2-121.4-121.1-185.7-146.1-484.6-267.7-299.9-124.8-453.6-140.4-666.9-88-230.8 56.8-326.8 559.3-329.1 644.6-1.9 89.5 6 181.2 44.7 272.6 44.6 105.2 121.3 193.3 199.3 257.3 78.5 64.3 166.4 105.8 264.1 128.1 97.7 22.3 196.4 23.6 298 7.6z"/>
		<path id="Layer" class="s3" d="m4030.3 2546.3c-121.4-121.1-185.7-146.1-484.6-267.7-299.9-124.8-453.6-140.4-666.9-88-206.6 50.9-305.1 458.8-325.2 605 71.2-96.4 160.4-218.3 258.2-291.1 61.5-44 128.5-64.6 202.4-71.1 279.5-17.1 603.5 86.2 780.6 313.7 33.7 44.8 54.3 110.9 54.6 165.1-2.3 160.4-84.9 304.6-208.2 428-65.1 65.8-144.2 103.2-230.6 128.1-82.8 22.8-166.3 35.7-250 40.7 64.2 5.3 129.1 2.2 195.2-8.2 101.1-16.3 211.9-46.9 306.3-98.5 82.1-45 140.8-101.3 192.7-160.8 40.9-59.6 316.6-552.9 175.5-695.2z"/>
		<path id="Layer" class="s9" d="m3726.7 3153c-22.8 83.7-120.4 129.9-218 103.3-97.6-26.7-158.1-116.1-135.2-199.8 22.8-83.7 120.5-129.9 218-103.2 97.6 26.6 158.1 116.1 135.2 199.7z"/>
		<path id="Layer" class="s9" d="m3003.4 2950c-22.9 83.7-123 129.2-223.7 101.7-100.6-27.5-163.6-117.6-140.8-201.3 22.9-83.7 123-129.2 223.7-101.7 100.6 27.5 163.6 117.6 140.8 201.3z"/>
		<path id="Layer" class="s10" d="m3105.3 2725.2c-24.9 88.8-105.7 143.7-180.6 122.7-74.9-21-115.4-109.9-90.5-198.7 24.9-88.8 105.8-143.7 180.6-122.7 74.9 20.9 115.4 109.9 90.5 198.7z"/>
		<path id="Layer" class="s11" d="m2849.3 2663.4c-21.5 76.5 15.3 153.7 82 172.4 66.7 18.7 138.2-28.1 159.7-104.6 21.4-76.5-15.3-153.7-82.1-172.4-66.7-18.7-138.2 28.1-159.6 104.6z"/>
		<path id="Layer" class="s10" d="m2938.2 2653.1c-0.4-4.9-4.8-8.7-12.1-9.5-7.2-0.9-17.3 1.6-26.6 8.4-9.4 6.8-15.8 16.3-18.3 24.2-2.5 8-1.5 14.2 2.1 16.8 3.6 2.6 8.8 1.7 14.4-0.6 5.6-2.3 11.6-5.9 17.8-10.5 6.3-4.5 11.7-9.2 16-14 4.2-4.8 7.2-9.9 6.7-14.8z"/>
		<path id="Layer" class="s10" d="m3399.8 2807.7c-24.9 88.8 15.6 177.8 90.4 198.8 74.9 21 155.8-34 180.6-122.7 24.9-88.8-15.5-177.8-90.4-198.8-74.9-21-155.7 34-180.6 122.7z"/>
		<path id="Layer" class="s11" d="m3653.6 2888.9c-21.5 76.5-93 123.3-159.7 104.6-66.7-18.7-103.5-95.9-82-172.3 21.4-76.5 92.9-123.3 159.6-104.6 66.8 18.7 103.5 95.8 82.1 172.3z"/>
		<path id="Layer" class="s10" d="m3583 2833.8c2.9-3.9 8.6-4.9 15.2-1.8 6.6 3 13.9 10.4 18.4 21.1 4.5 10.7 5 22.1 3 30.1-2 8.2-6.1 12.9-10.5 13.3-4.4 0.4-8.4-3.1-12-7.9-3.5-4.9-6.8-11.2-9.8-18.3-3-7.1-5.2-14-6.3-20.3-1.1-6.3-1-12.2 2-16.2z"/>
		<path id="Layer" class="s12" d="m3268.2 2923.8c2.4 3.6 2.1 8.6 0 12.4q-1 1.8-2.4 3.7c-1 1.2-2.3 2.4-3.7 3.6-3 2.5-6.6 4.5-10.6 6-2.1 0.8-4.3 1.3-6.8 1.9-2.4 0.5-5 0.7-7.7 0.9-44.3 1.4-73.2-47.4-50.7-85.6 1.5-2.3 2.9-4.4 4.5-6.3 1.7-1.9 3.2-3.6 5-5.1 3.2-2.7 6.7-4.9 10.4-6.4 1.7-0.6 3.3-1.1 4.8-1.4q2.4-0.4 4.4-0.4c16.2 0.2 12.5 18.8 14.2 29.9 0 0.9 0.3 2 0.4 2.9 0.1 1 0.4 2 0.5 2.9 0.8 3.4 1.7 7 3.2 9.9 0.6 1.1 1.2 2 1.6 2.8 0.5 0.8 1 1.7 1.7 2.8 1.8 2.7 4.5 5.2 7.1 7.5 0.8 0.6 1.5 1.3 2.3 1.9 0.8 0.5 1.6 1.3 2.4 1.8 6.2 4.8 14.8 7.7 19.4 14.3z"/>
		<path id="Layer" class="s13" d="m3010.2 2984.7c79.4 76.6 197.2 104.2 302 68.8 27.9-9.4 54.3-22.7 78.3-39.8 9.6-6.9 0.6-23.2-9.2-16.2-82.5 58.8-192.5 69.7-284.2 25.4-27.1-13.1-51.9-30.3-73.5-51.2-8.7-8.3-22.1 4.6-13.4 13z"/>
		<path id="Layer" class="s11" d="m3523.6 2606.9c59.8 13.8 113.9 48.8 150.1 98.5 6.8 9.3 22.7 0.5 15.8-8.9-39.1-53.6-96.3-92.1-161-107-11.3-2.6-16.3 14.8-4.9 17.4z"/>
		<path id="Layer" class="s11" d="m2934.4 2489.1c59.2-16.1 123.4-10.7 178.8 16 10.3 5 20.2-10.2 9.7-15.3-59.7-28.8-128.3-35.8-192.4-18.5-11.2 3.1-7.4 20.8 3.9 17.8z"/>
		<path id="Layer" class="s14" d="m3911.6 3048.5c11.4 1.9 61.3-89.1 77.1-173.8 15.8-84.7 13.8-175-21.1-253.7-31.3-70.4-65.1-123.5-122.9-174.4-130.8-115-246.3-187-415.6-228.3-169.3-41.3-416.9-39.9-565.7 50.7-137.4 83.7-235 219.4-240.2 378.9-0.3 8.2 5.7 28.9 9.6 21.6 44.4-82.9 181.8-295.6 387.8-311.3 260.3-19.8 650.8 66.7 822.7 330.7 140.6 215.6 56.9 357.7 68.3 359.6z"/>
		<path id="Layer" fill-rule="evenodd" class="s11" d="m4131.3 2918c-74.5 251.2-105.4 305-277.4 525.2-149.5 191.2-296.9 191.7-357.8 184.8-87.6-9.9-119.3-47.8-139.2-63.6-45.6-36.1-106 79.3-189.2 71.7-223.3-20.5-121.2-167.3-226.7-171.8-212.6-9.2-470.8-273.1-533.5-486.9-58.6-200-2.9-430.4 2.2-457.7 31.2-167.8 114.1-337.9 240.5-455.3 215.2-199.9 484.1-299.2 773.2-247.5 289.1 51.7 549.1 253.2 663.4 523.8 75.7 179.1 99.9 391.4 44.5 577.3zm-230.4-347.9c-115.4-165.1-305.1-264.3-498.6-320.9-166-48.5-356.7-48.8-508.1 34.8-126.5 69.9-175.6 153-228.7 290.9-23.9 62.2-43.3 127.1-60.7 190.8-34.9 53.2-39.8 123.3-24.3 185.6 16.9 68 55.1 128.5 95.2 185.8 67.9 97.3 126.4 188.2 228.3 249 115.7 69 255.7 89.7 389.8 77.5 134.2-12.1 252-57.2 376.5-108.6 46.7-19.3 93.6-40.3 131.4-73.8 53.7-47.6 53.5-116.9 95.6-202.4 82.1-166.9 117.2-346 3.6-508.7z"/>
		<path id="Layer" class="s15" d="m3967.2 2904.1c0.2-0.8 16.3-75 13.7-180.4-2.3-96.3-21.2-239.2-97.9-373.6l55.8-31.8c83.7 146.7 104.1 301.7 106.4 405.9 2.6 112.7-14.5 190.6-15.2 193.8z"/>
		<path id="Layer" class="s16" d="m3897.3 3122.7c-46.5 170.2-80.4 307.8-138.7 291.9-58.3-15.9-27.6-155.8 18.9-326 46.5-170.2 91.3-306.3 149.6-290.3 58.3 15.9 16.7 154.2-29.8 324.4z"/>
		<path id="Layer" class="s17" d="m3888.6 3398.6l11.7 3.2c15.6 4.2 31.7-4.9 36-20.5l117.2-428.8c4.2-15.6-5-31.7-20.6-36l-11.7-3.2z"/>
		<path id="Layer" class="s18" d="m3799.3 3389.8l108.1 29.6 139.2-509.3-108.2-29.5z"/>
		<path id="Layer" class="s15" d="m2506.5 2504.8c0.2-0.7 24.1-72.8 79.9-162.2 51-81.7 139.9-195.2 274.3-271.9l-31.8-55.8c-146.7 83.8-243.1 206.8-298.1 295.4-59.5 95.7-84.4 171.5-85.4 174.7z"/>
		<path id="Layer" class="s16" d="m2718.9 3232.9q0 0 0 0l-140.9-39.2q-1.2-0.3-2.3-0.6c-91-24.9-127.3-54.7-148.8-78-48.9-53.1-61.8-135.9-31.2-201.4 1.8-3.8 6.2-5.4 10.1-3.7 3.7 1.8 5.3 6.3 3.6 10.1-28.1 60-16.3 136.1 28.6 184.8 38.4 41.6 94.3 60.9 144 74.3l140.9 39.2c4 1.1 6.4 5.2 5.3 9.2-1.2 4.1-5.3 6.4-9.3 5.3z"/>
		<path id="Layer" class="s16" d="m2770.9 3241.6c-6.3 22.8-41.8 33-79.3 22.7-37.6-10.2-63-37-56.7-59.8 6.2-22.9 41.7-33 79.3-22.8 37.5 10.3 62.9 37.1 56.7 59.9z"/>
		<path id="Layer" class="s16" d="m2465.7 2731.4c-46.5 170.2-87.3 306-29.1 321.9 58.3 15.9 103.1-120.1 149.6-290.3 46.5-170.2 77.2-310.1 18.9-326-58.3-16-92.9 124.2-139.4 294.4z"/>
		<path id="Layer" class="s17" d="m2332.9 2973.4l-11.7-3.2c-15.6-4.2-24.8-20.4-20.6-36l117.2-428.7c4.3-15.6 20.4-24.8 36-20.5l11.7 3.2z"/>
		<path id="Layer" class="s18" d="m2414.2 3011.3l-108.1-29.6 139.2-509.2 108.1 29.6z"/>
		<path id="Layer" class="s16" d="m3995.4 2422.6c-85.1-237.8-281.1-431.6-543.2-503.2-263.1-71.9-531.3-3.9-725.8 158.8l78.1 60.2c46-36.3 96.5-67 150.5-91 72.8-32.3 149.7-52 228.6-58.4 81.6-6.7 163.5 1 243.4 22.8 79.9 21.8 154.2 56.9 221.2 104.1 64.6 45.7 120.8 101.8 167 166.6 33.8 47.4 61.3 98.6 82.3 152.2z"/>
		<path id="Layer" class="s1" d="m1265.3 1959.8c0 80.3-65.2 145.5-145.5 145.5-80.4 0-145.6-65.2-145.6-145.5 0-80.4 65.2-145.6 145.6-145.6 80.3 0 145.5 65.2 145.5 145.6z"/>
		<path id="Layer" class="s10" d="m1253.2 1954.9c0 77.7-62.9 140.6-140.6 140.6-77.7 0-140.7-62.9-140.7-140.6 0-77.7 63-140.7 140.7-140.7 77.7 0 140.6 63 140.6 140.7z"/>
		<path id="Layer" class="s1" d="m1143 1966.5l-24.4-26c6.9-11.4 7.6-26.2 0.6-38.5-10.3-18.3-33.7-24.8-51.9-14.4-16.2 9.1-23.1 28.6-17.2 45.6 0.8 3.4 2.5 6.7 4.9 9.6 1.9 2.7 71.6 77 74.8 79.2 2.9 2.2 6.3 3.6 9.8 4.3 7.3 1.7 15.2 0.8 22.1-3.1 14.6-8.3 19.8-26.9 11.5-41.5-6.2-11-18.3-16.7-30.2-15.2z"/>
		<path id="Layer" class="s1" d="m1265.3 2318.3c0 80.3-65.2 145.5-145.5 145.5-80.4 0-145.6-65.2-145.6-145.5 0-80.4 65.2-145.5 145.6-145.5 80.3 0 145.5 65.1 145.5 145.5z"/>
		<path id="Layer" class="s10" d="m1253.2 2313.4c0 77.7-62.9 140.6-140.6 140.6-77.7 0-140.7-62.9-140.7-140.6 0-77.7 63-140.6 140.7-140.6 77.7 0 140.6 62.9 140.6 140.6z"/>
		<path id="Layer" fill-rule="evenodd" class="s1" d="m1203.1 2299.5v37.6c0 26.6-21.8 48.4-48.4 48.4h-72.2c-26.6 0-48.4-21.8-48.4-48.4v-37.6c0-26.7 21.8-48.5 48.4-48.5h72.2c26.6 0 48.4 21.8 48.4 48.5zm-17.8-17.8c-1.2-2.3-4.1-3.1-6.4-1.9l-60.3 33.1-60-33.1c-2.3-1.2-5.1-0.4-6.4 1.9-1.3 2.3-0.4 5.1 1.9 6.4l62.2 34.3c0.7 0.4 1.5 0.6 2.3 0.6 0.8 0 1.6-0.2 2.3-0.6l62.6-34.3c2.2-1.2 3.1-4.1 1.8-6.4z"/>
		<path id="Layer" class="s1" d="m1265.3 2676.8c0 80.4-65.2 145.5-145.5 145.5-80.4 0-145.6-65.1-145.6-145.5 0-80.4 65.2-145.5 145.6-145.5 80.3 0 145.5 65.1 145.5 145.5z"/>
		<path id="Layer" class="s10" d="m1253.2 2671.9c0 77.7-62.9 140.6-140.6 140.6-77.7 0-140.7-62.9-140.7-140.6 0-77.7 63-140.6 140.7-140.6 77.7 0 140.6 62.9 140.6 140.6z"/>
		<path id="Layer" fill-rule="evenodd" class="s1" d="m1182.2 2658c0 35.1-63.6 101.1-63.6 101.1 0 0-63.6-66-63.6-101.1 0-35.1 28.5-63.5 63.6-63.5 35.1 0 63.6 28.4 63.6 63.5zm-42.3 4.8c0-11.7-9.5-21.2-21.3-21.2-11.7 0-21.3 9.5-21.3 21.2 0 11.8 9.6 21.3 21.3 21.3 11.8 0 21.3-9.5 21.3-21.3z"/>
		<path id="Layer" class="s10" d="m1013.1 1374.3q0 30.9 8.6 52.5 8.6 21.7 25.2 32.9 16.6 11.1 39.9 11.1 19.2 0 33.7-7.5 14.5-7.4 22.8-20.7 8.4-13.3 9.9-30.5h64.1q0 1.5 0 3.2 0 1.7 0 3.2-1.7 31.9-18.9 56.4-17.2 24.5-46.2 38.2-29 13.8-65.9 13.8-45.2 0-76.7-18.3-31.4-18.3-47.8-52.5-16.3-34.2-16.3-81.8v-41.8q0-47.7 16.5-82.1 16.4-34.4 48-53.1 31.6-18.7 76.3-18.7 27.5 0 51 8 23.5 8 40.9 23 17.5 15 27.7 35.4 10.2 20.4 11.4 45.4 0 1.5 0 3.1 0 1.6 0 3.1h-64.1q-1.5-18-10-32-8.5-14-23-22-14.5-8-33.4-8-23.1 0-39.7 11.6-16.6 11.6-25.3 33.4-8.7 21.9-8.7 53.1z"/>
		<path id="Layer" fill-rule="evenodd" class="s10" d="m1543 1456q-17.2 34.3-49.3 52.6-32.1 18.3-77.1 18.3-44.7 0-77-18.3-32.3-18.3-49.5-52.6-17.2-34.3-17.2-81.5v-43q0-47.7 17.2-82 17.2-34.3 49.5-52.6 32.3-18.3 77-18.3 45 0 77.1 18.4 32.1 18.5 49.3 52.8 17.2 34.3 17.2 81.7v43q0 47.2-17.2 81.5zm-60-179q-9.8-21.5-27-32.3-17.2-10.8-39.4-10.8-22.3 0-39.4 10.8-17.1 10.8-26.9 32.3-9.8 21.6-9.8 54v43.7q0 32.2 9.8 53.9 9.8 21.6 26.9 32.3 17.1 10.7 39.4 10.7 22.2 0 39.4-10.7 17.2-10.7 27-32.3 9.8-21.7 9.8-53.9v-43.7q0-32.4-9.8-54z"/>
		<path id="Layer" class="s10" d="m1630.7 1520.5v-335.5h55.6l146.9 223.2h2.7v-223.2h63v335.5h-55.1l-147.7-224.4h-2.7v224.4z"/>
		<path id="Layer" class="s10" d="m2046.3 1520.5v-280h-95.1v-55.5h257.1v55.5h-95.4v280z"/>
		<path id="Layer" fill-rule="evenodd" class="s10" d="m2208.5 1520.5l112.6-335.5h77.7l112 335.5h-70.5l-26.3-86.3h-112.1l-26.3 86.3zm148.2-271.3l-41 135.6h85l-41-135.6z"/>
		<path id="Layer" class="s10" d="m2607.4 1374.3q0 30.9 8.7 52.5 8.6 21.7 25.1 32.9 16.6 11.1 40 11.1 19.2 0 33.6-7.5 14.6-7.4 22.9-20.7 8.4-13.3 9.8-30.5h64.2q0 1.5 0 3.2 0 1.7 0 3.2-1.7 31.9-18.9 56.4-17.3 24.5-46.3 38.2-28.9 13.8-65.8 13.8-45.2 0-76.7-18.3-31.5-18.3-47.8-52.5-16.4-34.2-16.3-81.8v-41.8q-0.1-47.7 16.4-82.1 16.5-34.4 48.1-53.1 31.6-18.7 76.3-18.7 27.5 0 51 8 23.4 8 40.9 23 17.5 15 27.7 35.4 10.2 20.4 11.4 45.4 0 1.5 0 3.1 0 1.6 0 3.1h-64.2q-1.4-18-9.9-32-8.5-14-23-22-14.5-8-33.4-8-23.1 0-39.7 11.6-16.6 11.6-25.3 33.4-8.8 21.9-8.8 53.1z"/>
		<path id="Layer" class="s10" d="m2944.2 1520.5v-280h-95.2v-55.5h257.1v55.5h-95.3v280z"/>
		<path id="Layer" class="s10" d="m3451.7 1451.7q18.9-18.7 18.9-53.4v-213.3h66.6v219.7q0 36.6-16.7 64.3-16.7 27.7-47 42.8-30.4 15.1-71.7 15.1-41.3 0-71.8-15.1-30.4-15.1-47.2-42.8-16.7-27.7-16.7-64.3v-219.7h66.6v213.3q0 34.9 19 53.5 18.9 18.6 50.1 18.6 31-0.1 49.9-18.7z"/>
		<path id="Layer" class="s10" d="m3660.8 1429.1q1.8 9.5 7.2 17.8 5.4 8.2 14.2 14.4 8.9 6.1 20.9 9.5c8 2.3 17 3.5 26.8 3.5q20.7 0 34.8-5.9 14.1-5.9 21.3-16.4 7.1-10.4 7.1-24.2c0-11.6-4.3-20.7-12.8-27.4q-12.8-9.9-38.8-16.1l-51.9-12c-17.4-3.9-32.4-9.9-45.2-18q-19.2-12-29.5-30.7-10.3-18.7-10.3-44 0-30.7 16-53.6 15.9-22.8 44.2-35.3 28.3-12.6 65.1-12.6 38.3 0 65.5 12.8 27.2 12.8 42 34.3 14.9 21.5 16.6 47.5h-62.9q-2.2-12-9.9-21.6c-5.2-6.4-12.1-11.5-20.8-15.2q-13-5.7-31-5.7-27.3 0-42.9 12.7-15.6 12.6-15.6 32.3 0 15.2 12.1 25.1 12 9.8 33.9 14.7l52.1 12.1q27.3 6.1 47.4 17.5 20.2 11.5 31.5 30.1 11.3 18.7 11.3 47 0 31.2-15.6 54.9-15.6 23.7-45.2 37-29.6 13.3-72.2 13.3-31.9 0-55.8-7.6-23.8-7.7-39.9-21.3-16.1-13.6-24.5-31.3-8.3-17.7-9.3-37.6z"/>
		<text id="Phone" style="transform: matrix(.25,0,0,.25,1377.965,1997.455)" >
			<tspan x="0" y="0" class="t19">Phone
</tspan>
		</text>
		<text id="E-Mail" style="transform: matrix(.25,0,0,.25,1377.965,2377.895)" >
			<tspan x="0" y="0" class="t19">E-Mail
</tspan>
		</text>
		<text id="Location" style="transform: matrix(.25,0,0,.25,1377.965,2758.335)" >
			<tspan x="0" y="0" class="t19">Location
</tspan>
		</text>
	</g>
</svg>